
        <svg xmlns="http://www.w3.org/2000/svg" xmlns:xlink="http://www.w3.org/1999/xlink" version="1.1" width="3240" 
        height="1462.8259673457499" viewBox="0 0 3240 1462.8259673457499">
			
			<g transform="scale(12.000000000000002) translate(10, 10)">
				<defs id="SvgjsDefs4838"></defs><g id="SvgjsG4839" featureKey="j5pGhi-0" transform="matrix(4.709872067496284,0,0,4.709872067496284,-8.100980090844129,-24.773925907192606)" fill="#576b75"><path d="M3.66 7.300000000000001 l0 4.98 l3.86 0 c1.74 0 2.92 -0.64 2.92 -2.58 c0 -1.82 -1.24 -2.4 -2.84 -2.4 l-3.94 0 z M3.66 13.940000000000001 l0 6.06 l-1.94 0 l0 -14.36 l6.46 0 c2.66 0 4.26 1.72 4.26 4.04 c0 2 -1.14 4.26 -4.26 4.26 l-4.52 0 z M16.44 5.640000000000001 l0 14.36 l-1.76 0 l0 -14.36 l1.76 0 z M20.64 12.719999999999999 l-1.62 0 c0.08 -2.5 1.74 -3.48 4.32 -3.48 c0.84 0 3.88 0.24 3.88 2.92 l0 6.02 c0 0.44 0.22 0.62 0.58 0.62 c0.16 0 0.38 -0.04 0.58 -0.08 l0 1.28 c-0.3 0.08 -0.56 0.2 -0.96 0.2 c-1.56 0 -1.8 -0.8 -1.86 -1.6 c-0.68 0.74 -1.74 1.7 -3.78 1.7 c-1.92 0 -3.28 -1.22 -3.28 -3.02 c0 -0.88 0.26 -2.92 3.18 -3.28 l2.9 -0.36 c0.42 -0.04 0.92 -0.2 0.92 -1.24 c0 -1.1 -0.8 -1.7 -2.46 -1.7 c-2 0 -2.28 1.22 -2.4 2.02 z M25.46 16.38 l0 -1.72 c-0.28 0.22 -0.72 0.38 -2.9 0.66 c-0.86 0.12 -2.24 0.38 -2.24 1.7 c0 1.14 0.58 1.82 1.9 1.82 c1.64 0 3.24 -1.06 3.24 -2.46 z M38.72 12.879999999999999 l0 7.12 l-1.76 0 l0 -6.44 c0 -1.82 -0.52 -2.74 -2.24 -2.74 c-1 0 -2.76 0.64 -2.76 3.48 l0 5.7 l-1.76 0 l0 -10.46 l1.66 0 l0 1.48 l0.04 0 c0.38 -0.56 1.36 -1.78 3.16 -1.78 c1.62 0 3.66 0.66 3.66 3.64 z M52.800000000000004 12.82 c0 -3.38 -1.88 -5.84 -5 -5.84 s-5 2.46 -5 5.84 s1.88 5.84 5 5.84 s5 -2.46 5 -5.84 z M54.800000000000004 12.82 c0 3.1 -1.64 7.56 -7 7.56 s-7 -4.46 -7 -7.56 s1.64 -7.56 7 -7.56 s7 4.46 7 7.56 z"></path></g><g id="SvgjsG4840" featureKey="sloganFeature-0" transform="matrix(0.7315587986924011,0,0,0.7315587986924011,23.72129895053863,87.59952825028563)" fill="#404445"><path d="M1.748 19.38477 l0 -14.482 l2.998 0 q3.251953125 0 4.7265625 0.52734375 q2.099609375 0.732421875 3.286132813 2.553710938 t1.1865 4.3408 q0 2.16796875 -0.9423828125 3.828125 t-2.4414 2.4463 t-4.2041 0.78613 l-4.6094 0 z M3.1348 18.0078 l1.6699 0 q2.998046875 0 4.169921875 -0.37109375 q1.630859375 -0.52734375 2.568359375 -1.909179688 t0.9375 -3.3838 q0 -2.099609375 -1.010742188 -3.583984375 t-2.8271 -2.0313 q-1.3671875 -0.419921875 -4.482421875 -0.419921875 l-1.0254 0 l0 11.699 z M16.52346875 4.941000000000001 l1.4453 0 l0 14.482 l-1.4453 0 l0 -14.482 z M20.078124375 16.4941 l1.2305 -0.74219 q1.298828125 2.392578125 2.998046875 2.392578125 q0.732421875 0 1.376953125 -0.341796875 t0.97656 -0.9082 t0.33203 -1.2109 q0 -0.72265625 -0.48828125 -1.42578125 q-0.68359375 -0.966796875 -2.490234375 -1.97265625 q-1.81640625 -1.3671875 -2.24609375 -1.982421875 q-0.771484375 -1.015625 -0.771484375 -2.216796875 q0 -0.947265625 0.44921875 -1.71875 t1.2744 -1.2256 t1.792 -0.4541 q1.015625 0 1.904296875 0.5126953125 t1.8848 1.8701 l-1.1816 0.88867 q-0.810546875 -1.07421875 -1.38671875 -1.420898438 t-1.2598 -0.34668 q-0.869140625 0 -1.42578125 0.5322265625 t-0.55664 1.3037 q0 0.46875 0.1953125 0.91796875 t0.72266 0.95703 q0.283203125 0.283203125 1.875 1.455078125 q1.875 1.38671875 2.573242188 2.294921875 t0.69824 1.9922 q0 1.58203125 -1.196289063 2.744140625 t-2.9053 1.1621 q-1.328125 0 -2.40234375 -0.703125 t-1.9727 -2.3535 z M44.79478125 7.715 l-1.1523 0.85938 q-0.9375 -1.23046875 -2.260742188 -1.860351563 t-2.9053 -0.62988 q-1.73828125 0 -3.212890625 0.830078125 t-2.29 2.2314 t-0.81543 3.1592 q0 2.646484375 1.81640625 4.262695313 t4.5801 1.6162 q3.046875 0 5.087890625 -2.3828125 l1.1523 0.86914 q-1.083984375 1.376953125 -2.705078125 2.12890625 t-3.6133 0.75195 q-3.80859375 0 -6.005859375 -2.529296875 q-1.8359375 -2.138671875 -1.8359375 -4.84375 q0 -3.173828125 2.231445313 -5.3515625 t5.5811 -2.1777 q2.03125 0 3.666992188 0.8056640625 t2.6807 2.2607 z M54.589834375 4.686999999999999 q3.28125 0 5.493164063 2.197265625 t2.2119 5.4102 q0 3.173828125 -2.20703125 5.21484375 t-5.3809 2.041 q-3.22265625 0 -5.439453125 -2.202148438 t-2.2168 -4.9854 q0 -2.080078125 1.005859375 -3.8671875 t2.7539 -2.7979 t3.7793 -1.0107 z M54.648434375 6.1129999999999995 q-1.6015625 0 -3.041992188 0.8349609375 t-2.2412 2.2559 t-0.80078 3.1592 q0 2.578125 1.782226563 4.1796875 t4.3018 1.6016 q1.6796875 0 3.115234375 -0.8203125 t2.2363 -2.2314 t0.80078 -2.7979 q0 -1.71875 -0.80078125 -3.115234375 t-2.2559 -2.2314 t-3.0957 -0.83496 z M64.082034375 4.98 l1.5723 0 l4.7949 11.191 l4.8828 -11.191 l1.582 0 l-6.3086 14.482 l-0.3125 0 z M79.326159375 4.941000000000001 l8.3008 0 l0 1.4258 l-6.8555 0 l0 4.5313 l4.1797 0 l0 1.4063 l-4.1797 0 l0 5.6836 l6.7969 0 l0 1.4355 l-8.2422 0 l0 -14.482 z M90.55666875 4.941000000000001 l2.8809 0 q2.412109375 0 3.271484375 0.1953125 q1.2890625 0.29296875 2.099609375 1.264648438 t0.81055 2.3877 q0 1.19140625 -0.556640625 2.080078125 t-1.5967 1.3525 t-1.8018 0.46387 l4.1504 6.7383 l-1.7773 0 l-4.1504 -6.7383 l-1.8848 0 l0 6.7383 l-1.4453 0 l0 -14.482 z M92.00196875 6.356999999999999 l0 4.9219 l2.4902 0.019531 q1.4453125 0 2.143554688 -0.2734375 t1.084 -0.87891 t0.38574 -1.3574 q0 -0.72265625 -0.3955078125 -1.318359375 t-1.0303 -0.85449 t-2.1289 -0.25879 l-2.5488 0 z M103.984365625 17.0215 q0.498046875 0 0.8544921875 0.3564453125 t0.35645 0.86426 q0 0.498046875 -0.3564453125 0.8544921875 t-0.85449 0.35645 q-0.5078125 0 -0.859375 -0.3564453125 t-0.35156 -0.85449 q0 -0.5078125 0.3515625 -0.8642578125 t0.85938 -0.35645 z M113.6133 4.901999999999999 l2.8809 0 q2.490234375 0 3.349609375 0.21484375 q1.25 0.3125 2.03125 1.259765625 t0.78125 2.3926 q0 1.435546875 -0.7666015625 2.377929688 t-2.1143 1.2646 q-0.986328125 0.234375 -3.681640625 0.234375 l-1.0352 0 l0 6.7383 l-1.4453 0 l0 -14.482 z M115.0586 6.308999999999999 l0 4.9219 l2.4609 0.029297 q1.474609375 0 2.163085938 -0.2685546875 t1.084 -0.87891 t0.39551 -1.3428 q0 -0.7421875 -0.3955078125 -1.34765625 t-1.04 -0.85938 t-2.1094 -0.25391 l-2.5586 0 z M125.527296875 4.901999999999999 l1.4551 0 l0 13.086 l5.5664 0 l0 1.3965 l-7.0215 0 l0 -14.482 z M140.751971875 4.901999999999999 l6.748 14.482 l-1.543 0 l-2.2754 -4.7754 l-6.25 0 l-2.2559 4.7754 l-1.6211 0 l6.8457 -14.482 l0.35156 0 z M140.576171875 7.968999999999999 l-2.5 5.2539 l4.9609 0 z M149.74608125 19.42383 l0 -14.482 l0.3125 0 l9.6289 11.084 l0 -11.084 l1.4258 0 l0 14.482 l-0.33203 0 l-9.5313 -10.947 l0 10.947 l-1.5039 0 z M165.90819375 17.0215 q0.498046875 0 0.8544921875 0.3564453125 t0.35645 0.86426 q0 0.498046875 -0.3564453125 0.8544921875 t-0.85449 0.35645 q-0.5078125 0 -0.859375 -0.3564453125 t-0.35156 -0.85449 q0 -0.5078125 0.3515625 -0.8642578125 t0.85938 -0.35645 z M182.460928125 4.686999999999999 q3.28125 0 5.493164063 2.197265625 t2.2119 5.4102 q0 3.173828125 -2.20703125 5.21484375 t-5.3809 2.041 q-3.22265625 0 -5.439453125 -2.202148438 t-2.2168 -4.9854 q0 -2.080078125 1.005859375 -3.8671875 t2.7539 -2.7979 t3.7793 -1.0107 z M182.519528125 6.1129999999999995 q-1.6015625 0 -3.041992188 0.8349609375 t-2.2412 2.2559 t-0.80078 3.1592 q0 2.578125 1.782226563 4.1796875 t4.3018 1.6016 q1.6796875 0 3.115234375 -0.8203125 t2.2363 -2.2314 t0.80078 -2.7979 q0 -1.71875 -0.80078125 -3.115234375 t-2.2559 -2.2314 t-3.0957 -0.83496 z M193.125028125 4.941000000000001 l2.8809 0 q2.412109375 0 3.271484375 0.1953125 q1.2890625 0.29296875 2.099609375 1.264648438 t0.81055 2.3877 q0 1.19140625 -0.556640625 2.080078125 t-1.5967 1.3525 t-1.8018 0.46387 l4.1504 6.7383 l-1.7773 0 l-4.1504 -6.7383 l-1.8848 0 l0 6.7383 l-1.4453 0 l0 -14.482 z M194.570328125 6.356999999999999 l0 4.9219 l2.4902 0.019531 q1.4453125 0 2.143554688 -0.2734375 t1.084 -0.87891 t0.38574 -1.3574 q0 -0.72265625 -0.3955078125 -1.318359375 t-1.0303 -0.85449 t-2.1289 -0.25879 l-2.5488 0 z M219.238625 7.4510000000000005 l-1.123 1.0645 q-1.2109375 -1.19140625 -2.651367188 -1.806640625 t-2.8174 -0.61523 q-1.69921875 0 -3.237304688 0.83984375 t-2.3877 2.2656 t-0.84961 2.7148 q0 1.640625 0.87890625 3.110351563 t2.4268 2.3047 t3.3838 0.83496 q2.2265625 0 3.774414063 -1.259765625 t1.8408 -3.2617 l-4.6191 0 l0 -1.3965 l6.2305 0 q-0.01953125 3.359375 -1.987304688 5.33203125 t-5.2881 1.9727 q-4.00390625 0 -6.34765625 -2.734375 q-1.806640625 -2.109375 -1.806640625 -4.873046875 q0 -2.060546875 1.030273438 -3.671875 t2.8369 -2.6172 t4.082 -1.0059 q1.8359375 0 3.45703125 0.6689453125 t3.1738 2.1338 z M228.75001875 4.901999999999999 l6.748 14.482 l-1.543 0 l-2.2754 -4.7754 l-6.25 0 l-2.2559 4.7754 l-1.6211 0 l6.8457 -14.482 l0.35156 0 z M228.57421875 7.968999999999999 l-2.5 5.2539 l4.9609 0 z M237.744128125 19.42383 l0 -14.482 l0.3125 0 l9.6289 11.084 l0 -11.084 l1.4258 0 l0 14.482 l-0.33203 0 l-9.5313 -10.947 l0 10.947 l-1.5039 0 z M252.412140625 4.941000000000001 l1.4453 0 l0 14.482 l-1.4453 0 l0 -14.482 z M256.60155625 6.348000000000001 l0 -1.4063 l7.6367 0 l-6.0449 13.076 l5.7422 0 l0 1.4063 l-7.9785 0 l6.0938 -13.076 l-5.4492 0 z M266.835925 4.941000000000001 l8.3008 0 l0 1.4258 l-6.8555 0 l0 4.5313 l4.1797 0 l0 1.4063 l-4.1797 0 l0 5.6836 l6.7969 0 l0 1.4355 l-8.2422 0 l0 -14.482 z"></path></g>
			</g>
		</svg>
	